<svg xmlns="http://www.w3.org/2000/svg" version="1.1" xmlns:xlink="http://www.w3.org/1999/xlink" xmlns:svgjs="http://svgjs.dev/svgjs" width="1000" height="1000" viewBox="0 0 1000 1000"><rect width="1000" height="1000" fill="#ffffff"></rect><g transform="matrix(0.7,0,0,0.7,149.57575757575756,282.1265587044535)"><svg viewBox="0 0 396 247" data-background-color="#ffffff" preserveAspectRatio="xMidYMid meet" height="623" width="1000" xmlns="http://www.w3.org/2000/svg" xmlns:xlink="http://www.w3.org/1999/xlink"><g id="tight-bounds" transform="matrix(1,0,0,1,0.2400000000000091,-0.09999999999999432)"><svg viewBox="0 0 395.52 247.2" height="247.2" width="395.52"><g><svg></svg></g><g><svg viewBox="0 0 395.52 247.2" height="247.2" width="395.52"><mask id="eb877880-808b-4924-8aa2-c1cc51f3ff42"><rect width="395.52" height="247.2" fill="white"></rect><g transform="matrix(1,0,0,1,0,81.54338786279683)" id="clone"><svg viewBox="0 0 395.52 84.1132242744063" height="84.1132242744063" width="395.52"><g><svg viewBox="0 0 395.52 84.1132242744063" height="84.1132242744063" width="395.52"><g><svg viewBox="0 0 395.52 84.1132242744063" height="84.1132242744063" width="395.52"><g><svg viewBox="0 0 395.52 84.1132242744063" height="84.1132242744063" width="395.52"><g id="SvgjsG1097"><svg viewBox="0 0 395.52 84.1132242744063" height="84.1132242744063" width="395.52" id="SvgjsSvg1096"><g><svg viewBox="0 0 395.52 84.1132242744063" height="84.1132242744063" width="395.52"><g transform="matrix(1,0,0,1,0,0)"><svg width="395.52" viewBox="-4.600000023841858 -38 190.48001098632812 41.29999923706055" height="84.1132242744063" data-palette-color="#ee3e38"><path d="M15.7-8.35L15.7-8.35Q15.7-7.75 15.65-7.3 15.6-6.85 15.5-6.45L15.5-6.45Q16.5-7.05 17.45-7.7 18.4-8.35 19.1-8.95L19.1-8.95 21.2-8.95Q19.65-7.15 17.78-5.63 15.9-4.1 13.55-2.7L13.55-2.7Q12.2-1.25 10.1-0.48 8 0.3 5.7 0.3L5.7 0.3Q2.35 0.3 0.38-1.53-1.6-3.35-1.6-6.1L-1.6-6.1Q-1.6-7.65-0.85-8.93-0.1-10.2 1.05-10.75L1.05-10.75Q2.75-13.8 4.23-17.28 5.7-20.75 7.2-25.55L7.2-25.55 14.6-26.55Q14.75-22.8 14.95-19.7 15.15-16.6 15.45-12.95L15.45-12.95Q15.6-10.85 15.65-10 15.7-9.15 15.7-8.35ZM7.5-20.15L7.5-20.15Q6.85-18.1 5.93-15.88 5-13.65 3.45-10.7L3.45-10.7Q4-10.45 4.3-10 4.6-9.55 4.6-8.95L4.6-8.95Q4.6-8 3.95-7.25 3.3-6.5 2.4-6.5L2.4-6.5Q1.9-6.5 1.55-6.68 1.2-6.85 1.05-7.15L1.05-7.15Q1.05-5.3 1.78-4.48 2.5-3.65 4.1-3.65L4.1-3.65Q6.15-3.65 7.3-4.85 8.45-6.05 8.45-8.3L8.45-8.3Q8.45-9 8.4-9.73 8.35-10.45 8.2-12.15L8.2-12.15Q7.95-14.5 7.8-16.3 7.65-18.1 7.5-20.15ZM31.7-5.35L31.7-5.35Q31.7-6.25 31.92-7.6 32.15-8.95 32.85-11.9L32.85-11.9Q33.55-14.75 33.75-16 33.95-17.25 33.95-18.1L33.95-18.1Q33.95-19.35 33.47-20 33-20.65 32.1-20.65L32.1-20.65Q30.9-20.65 29.77-19.23 28.65-17.8 28.3-16.25L28.3-16.25 24.85 0 17.65 0 24.9-34 32.3-35 29.6-22.4Q30.85-23.8 32.3-24.5 33.75-25.2 35.45-25.2L35.45-25.2Q38.1-25.2 39.55-23.75 41-22.3 41-19.55L41-19.55Q41-18.4 40.72-16.82 40.45-15.25 39.65-12L39.65-12Q39-9.45 38.8-8.4 38.6-7.35 38.6-6.65L38.6-6.65Q38.6-5.6 39.1-5.08 39.6-4.55 40.6-4.55L40.6-4.55Q41.85-4.55 42.75-5.4 43.65-6.25 44.8-8.95L44.8-8.95 46.9-8.95Q45.3-4.3 43.02-2 40.75 0.3 37.6 0.3L37.6 0.3Q34.8 0.3 33.25-1.23 31.7-2.75 31.7-5.35ZM61.05-22.7L61.05-22.7 61.05-22.35 61.59-25 68.8-25 65.2-8Q65.09-7.55 65.05-7.18 65-6.8 65-6.4L65-6.4Q65-5.3 65.5-4.78 66-4.25 67.05-4.25L67.05-4.25Q68.34-4.25 69.4-5.48 70.45-6.7 71.09-8.95L71.09-8.95 73.2-8.95Q71.59-4.35 69.05-2.02 66.5 0.3 63.15 0.3L63.15 0.3Q61 0.3 59.72-0.9 58.45-2.1 58.25-4.3L58.25-4.3Q56.7-2 54.82-0.85 52.95 0.3 50.8 0.3L50.8 0.3Q47.7 0.3 45.92-1.8 44.15-3.9 44.15-7.75L44.15-7.75Q44.15-10.55 45-13.6 45.84-16.65 47.34-19.15L47.34-19.15Q49.2-22.1 51.65-23.68 54.09-25.25 57-25.25L57-25.25Q58.95-25.25 60-24.58 61.05-23.9 61.05-22.7ZM58.2-8.95L60.59-20.25Q60.59-21 60.05-21.58 59.5-22.15 58.55-22.15L58.55-22.15Q55.8-22.15 53.67-17.55 51.55-12.95 51.55-8.45L51.55-8.45Q51.55-6.5 52.09-5.53 52.65-4.55 54.05-4.55L54.05-4.55Q55.34-4.55 56.57-5.8 57.8-7.05 58.2-8.95L58.2-8.95ZM80.24-19L76.24 0 69.04 0 74.34-25 81.54-25 80.89-21.9Q83.09-23.75 84.37-24.38 85.64-25 86.94-25L86.94-25Q88.49-25 89.44-23.93 90.39-22.85 90.39-21.25L90.39-21.25Q90.39-19.7 89.39-18.65 88.39-17.6 86.79-17.6L86.79-17.6Q85.94-17.6 85.47-18 84.99-18.4 84.79-19.65L84.79-19.65Q84.64-20.45 84.44-20.68 84.24-20.9 83.89-20.9L83.89-20.9Q83.04-20.9 82.29-20.55 81.54-20.2 80.24-19L80.24-19ZM88.89-7.7L88.89-7.7Q88.89-10.55 89.81-13.75 90.74-16.95 92.34-19.45L92.34-19.45Q94.19-22.4 96.79-23.93 99.39-25.45 102.59-25.45L102.59-25.45Q105.79-25.45 107.39-23.45 108.99-21.45 108.99-17.45L108.99-17.45Q109.09-17.4 109.21-17.38 109.34-17.35 109.54-17.35L109.54-17.35Q111.09-17.35 113.24-18.2 115.39-19.05 117.24-20.35L117.24-20.35 117.69-19Q116.29-17.5 113.96-16.4 111.64-15.3 108.84-14.85L108.84-14.85Q108.24-8.1 104.94-3.95 101.64 0.2 96.89 0.2L96.89 0.2Q92.99 0.2 90.94-1.8 88.89-3.8 88.89-7.7ZM102.99-22.4L102.99-22.4Q100.59-22.4 98.46-17.55 96.34-12.7 96.34-8.35L96.34-8.35Q96.34-6 96.86-5.15 97.39-4.3 98.89-4.3L98.89-4.3Q100.74-4.3 102.41-7.3 104.09-10.3 104.69-14.7L104.69-14.7Q103.99-14.85 103.66-15.38 103.34-15.9 103.34-16.8L103.34-16.8Q103.34-17.75 103.74-18.45 104.14-19.15 104.89-19.5L104.89-19.5Q104.79-21.1 104.36-21.75 103.94-22.4 102.99-22.4ZM123.94-5.35L123.94-5.35Q123.94-6.25 124.16-7.6 124.39-8.95 125.09-11.9L125.09-11.9Q125.79-14.75 125.99-16 126.19-17.25 126.19-18.1L126.19-18.1Q126.19-19.35 125.74-20 125.29-20.65 124.39-20.65L124.39-20.65Q123.19-20.65 122.16-19.43 121.14-18.2 120.49-16.05L120.49-16.05 117.09 0 109.89 0 115.19-25 122.39-25 121.84-22.4Q123.09-23.8 124.54-24.5 125.99-25.2 127.69-25.2L127.69-25.2Q130.34-25.2 131.79-23.75 133.24-22.3 133.24-19.55L133.24-19.55Q133.24-18.4 132.96-16.82 132.69-15.25 131.89-12L131.89-12Q131.24-9.45 131.04-8.4 130.84-7.35 130.84-6.65L130.84-6.65Q130.84-5.6 131.34-5.08 131.84-4.55 132.84-4.55L132.84-4.55Q134.09-4.55 134.99-5.4 135.89-6.25 137.04-8.95L137.04-8.95 139.14-8.95Q137.54-4.3 135.26-2 132.99 0.3 129.84 0.3L129.84 0.3Q127.04 0.3 125.49-1.23 123.94-2.75 123.94-5.35ZM142.38-34L149.78-35 146.03-17.4 155.69-25 160.63-25 150.63-18.05Q151.34-18.15 151.66-18.2 151.98-18.25 152.28-18.25L152.28-18.25Q154.84-18.25 156.31-16.65 157.78-15.05 157.78-12.4L157.78-12.4Q157.78-11.9 157.74-11.43 157.69-10.95 157.59-10.5L157.59-10.5 157.03-8Q156.94-7.4 156.86-7 156.78-6.6 156.78-6.4L156.78-6.4Q156.78-5.45 157.26-5 157.74-4.55 158.74-4.55L158.74-4.55Q159.99-4.55 160.88-5.4 161.78-6.25 162.94-8.95L162.94-8.95 165.03-8.95Q163.49-4.35 161.19-2.02 158.88 0.3 155.84 0.3L155.84 0.3Q152.78 0.3 151.16-1.18 149.53-2.65 149.53-5.4L149.53-5.4Q149.53-6 149.61-6.65 149.69-7.3 149.84-8L149.84-8 150.23-9.95Q150.34-10.4 150.38-10.85 150.44-11.3 150.44-11.8L150.44-11.8Q150.44-13 149.98-13.6 149.53-14.2 148.63-14.2L148.63-14.2Q147.88-14.2 147.01-13.78 146.13-13.35 144.94-12.35L144.94-12.35 142.34 0 135.13 0 142.38-34ZM178.43-20.75L178.43-20.75Q177.63-20.75 177.13-21.53 176.63-22.3 176.63-23.3L176.63-23.3Q176.63-24.55 177.46-25.28 178.28-26 179.73-26L179.73-26Q181.28-26 182.08-24.85 182.88-23.7 182.88-21.65L182.88-21.65Q182.88-18.25 182.01-14.53 181.13-10.8 179.63-7.75L179.63-7.75Q177.63-3.8 174.83-1.75 172.03 0.3 168.63 0.3L168.63 0.3Q165.68 0.3 164.08-1.23 162.48-2.75 162.48-5.6L162.48-5.6Q162.48-6.15 162.56-6.78 162.63-7.4 162.73-8L162.73-8 166.33-25 173.53-25 169.93-8Q169.83-7.45 169.76-6.98 169.68-6.5 169.68-6.2L169.68-6.2Q169.68-5.4 170.11-4.98 170.53-4.55 171.38-4.55L171.38-4.55Q173.13-4.55 174.81-6.38 176.48-8.2 177.83-11.55L177.83-11.55Q178.83-13.95 179.43-16.6 180.03-19.25 180.03-21.25L180.03-21.25Q179.93-21.05 179.41-20.9 178.88-20.75 178.43-20.75Z" opacity="1" transform="matrix(1,0,0,1,0,0)" fill="black" class="wordmark-text-0" id="SvgjsPath1095" stroke-width="5" stroke="black" stroke-linejoin="round"></path></svg></g></svg></g></svg></g></svg></g><g></g></svg></g></svg></g></svg></g></mask><g mask="url(#eb877880-808b-4924-8aa2-c1cc51f3ff42)"><g><path xmlns="http://www.w3.org/2000/svg" d="M154.957 57.391v0c0-16.459 7.118-30.139 21.353-41.039 14.193-10.901 31.763-16.352 52.711-16.352v0c16.245 0 28.92 3.313 38.026 9.939 9.063 6.626 13.594 16.138 13.594 28.536v0c0 9.619-2.394 17.42-7.182 23.405-4.831 5.985-11.2 8.977-19.109 8.978v0c-2.992 0-5.707-0.534-8.144-1.604-2.479-1.069-4.681-2.779-6.605-5.129v0c4.275-2.565 7.759-6.412 10.453-11.543 2.65-5.13 3.976-10.474 3.975-16.031v0c0-6.84-2.031-12.12-6.092-15.839-4.061-3.762-9.939-5.643-17.634-5.643v0c-9.191 0-16.395 2.565-21.61 7.695-5.258 5.13-7.887 12.291-7.887 21.482v0c0 7.481 1.924 14.578 5.771 21.289 3.847 6.754 12.184 15.796 25.009 27.125v0c16.886 14.749 28.001 27.531 33.344 38.346 5.344 10.773 8.016 22.786 8.016 36.038v0c0 24.367-8.443 43.818-25.329 58.354-16.886 14.535-38.475 21.802-64.766 21.802v0c-20.947 0-37.513-4.809-49.696-14.428-12.184-9.619-18.275-23.192-18.276-40.719v0c0-15.39 4.596-28.001 13.787-37.834 9.191-9.832 20.306-14.749 33.345-14.748v0c8.122 0 14.749 1.86 19.878 5.579 5.13 3.762 7.909 8.956 8.336 15.582v0c-11.115 0-20.135 2.672-27.06 8.015-6.968 5.344-10.452 12.718-10.452 22.123v0c0 8.977 2.779 16.352 8.336 22.123 5.557 5.771 13.039 8.657 22.443 8.657v0c11.115 0 20.092-3.847 26.933-11.542 6.84-7.695 10.26-18.062 10.26-31.101v0c0-10.046-2.244-19.665-6.734-28.856-4.489-9.191-13.787-21.482-27.894-36.871v0c-12.825-13.68-21.204-24.431-25.137-32.255-3.976-7.78-5.964-15.625-5.963-23.534z" fill="#ee3e38" fill-rule="nonzero" stroke="none" stroke-width="1" stroke-linecap="butt" stroke-linejoin="miter" stroke-miterlimit="10" stroke-dasharray="" stroke-dashoffset="0" font-family="none" font-weight="none" font-size="none" text-anchor="none" style="mix-blend-mode: normal" data-fill-palette-color="tertiary"></path></g></g><g transform="matrix(1,0,0,1,0,81.54338786279683)"><svg viewBox="0 0 395.52 84.1132242744063" height="84.1132242744063" width="395.52"><g><svg viewBox="0 0 395.52 84.1132242744063" height="84.1132242744063" width="395.52"><g><svg viewBox="0 0 395.52 84.1132242744063" height="84.1132242744063" width="395.52"><g><svg viewBox="0 0 395.52 84.1132242744063" height="84.1132242744063" width="395.52"><g id="textblocktransform"><svg viewBox="0 0 395.52 84.1132242744063" height="84.1132242744063" width="395.52" id="textblock"><g><svg viewBox="0 0 395.52 84.1132242744063" height="84.1132242744063" width="395.52"><g transform="matrix(1,0,0,1,0,0)"><svg width="395.52" viewBox="-4.600000023841858 -38 190.48001098632812 41.29999923706055" height="84.1132242744063" data-palette-color="#ee3e38"><path d="M15.7-8.35L15.7-8.35Q15.7-7.75 15.65-7.3 15.6-6.85 15.5-6.45L15.5-6.45Q16.5-7.05 17.45-7.7 18.4-8.35 19.1-8.95L19.1-8.95 21.2-8.95Q19.65-7.15 17.78-5.63 15.9-4.1 13.55-2.7L13.55-2.7Q12.2-1.25 10.1-0.48 8 0.3 5.7 0.3L5.7 0.3Q2.35 0.3 0.38-1.53-1.6-3.35-1.6-6.1L-1.6-6.1Q-1.6-7.65-0.85-8.93-0.1-10.2 1.05-10.75L1.05-10.75Q2.75-13.8 4.23-17.28 5.7-20.75 7.2-25.55L7.2-25.55 14.6-26.55Q14.75-22.8 14.95-19.7 15.15-16.6 15.45-12.95L15.45-12.95Q15.6-10.85 15.65-10 15.7-9.15 15.7-8.35ZM7.5-20.15L7.5-20.15Q6.85-18.1 5.93-15.88 5-13.65 3.45-10.7L3.45-10.7Q4-10.45 4.3-10 4.6-9.55 4.6-8.95L4.6-8.95Q4.6-8 3.95-7.25 3.3-6.5 2.4-6.5L2.4-6.5Q1.9-6.5 1.55-6.68 1.2-6.85 1.05-7.15L1.05-7.15Q1.05-5.3 1.78-4.48 2.5-3.65 4.1-3.65L4.1-3.65Q6.15-3.65 7.3-4.85 8.45-6.05 8.45-8.3L8.45-8.3Q8.45-9 8.4-9.73 8.35-10.45 8.2-12.15L8.2-12.15Q7.95-14.5 7.8-16.3 7.65-18.1 7.5-20.15ZM31.7-5.35L31.7-5.35Q31.7-6.25 31.92-7.6 32.15-8.95 32.85-11.9L32.85-11.9Q33.55-14.75 33.75-16 33.95-17.25 33.95-18.1L33.95-18.1Q33.95-19.35 33.47-20 33-20.65 32.1-20.65L32.1-20.65Q30.9-20.65 29.77-19.23 28.65-17.8 28.3-16.25L28.3-16.25 24.85 0 17.65 0 24.9-34 32.3-35 29.6-22.4Q30.85-23.8 32.3-24.5 33.75-25.2 35.45-25.2L35.45-25.2Q38.1-25.2 39.55-23.75 41-22.3 41-19.55L41-19.55Q41-18.4 40.72-16.82 40.45-15.25 39.65-12L39.65-12Q39-9.45 38.8-8.4 38.6-7.35 38.6-6.65L38.6-6.65Q38.6-5.6 39.1-5.08 39.6-4.55 40.6-4.55L40.6-4.55Q41.85-4.55 42.75-5.4 43.65-6.25 44.8-8.95L44.8-8.95 46.9-8.95Q45.3-4.3 43.02-2 40.75 0.3 37.6 0.3L37.6 0.3Q34.8 0.3 33.25-1.23 31.7-2.75 31.7-5.35ZM61.05-22.7L61.05-22.7 61.05-22.35 61.59-25 68.8-25 65.2-8Q65.09-7.55 65.05-7.18 65-6.8 65-6.4L65-6.4Q65-5.3 65.5-4.78 66-4.25 67.05-4.25L67.05-4.25Q68.34-4.25 69.4-5.48 70.45-6.7 71.09-8.95L71.09-8.95 73.2-8.95Q71.59-4.35 69.05-2.02 66.5 0.3 63.15 0.3L63.15 0.3Q61 0.3 59.72-0.9 58.45-2.1 58.25-4.3L58.25-4.3Q56.7-2 54.82-0.85 52.95 0.3 50.8 0.3L50.8 0.3Q47.7 0.3 45.92-1.8 44.15-3.9 44.15-7.75L44.15-7.75Q44.15-10.55 45-13.6 45.84-16.65 47.34-19.15L47.34-19.15Q49.2-22.1 51.65-23.68 54.09-25.25 57-25.25L57-25.25Q58.95-25.25 60-24.58 61.05-23.9 61.05-22.7ZM58.2-8.95L60.59-20.25Q60.59-21 60.05-21.58 59.5-22.15 58.55-22.15L58.55-22.15Q55.8-22.15 53.67-17.55 51.55-12.95 51.55-8.45L51.55-8.45Q51.55-6.5 52.09-5.53 52.65-4.55 54.05-4.55L54.05-4.55Q55.34-4.55 56.57-5.8 57.8-7.05 58.2-8.95L58.2-8.95ZM80.24-19L76.24 0 69.04 0 74.34-25 81.54-25 80.89-21.9Q83.09-23.75 84.37-24.38 85.64-25 86.94-25L86.94-25Q88.49-25 89.44-23.93 90.39-22.85 90.39-21.25L90.39-21.25Q90.39-19.7 89.39-18.65 88.39-17.6 86.79-17.6L86.79-17.6Q85.94-17.6 85.47-18 84.99-18.4 84.79-19.65L84.79-19.65Q84.64-20.45 84.44-20.68 84.24-20.9 83.89-20.9L83.89-20.9Q83.04-20.9 82.29-20.55 81.54-20.2 80.24-19L80.24-19ZM88.89-7.7L88.89-7.7Q88.89-10.55 89.81-13.75 90.74-16.95 92.34-19.45L92.34-19.45Q94.19-22.4 96.79-23.93 99.39-25.45 102.59-25.45L102.59-25.45Q105.79-25.45 107.39-23.45 108.99-21.45 108.99-17.45L108.99-17.45Q109.09-17.4 109.21-17.38 109.34-17.35 109.54-17.35L109.54-17.35Q111.09-17.35 113.24-18.2 115.39-19.05 117.24-20.35L117.24-20.35 117.69-19Q116.29-17.5 113.96-16.4 111.64-15.3 108.84-14.85L108.84-14.85Q108.24-8.1 104.94-3.95 101.64 0.2 96.89 0.2L96.89 0.2Q92.99 0.2 90.94-1.8 88.89-3.8 88.89-7.7ZM102.99-22.4L102.99-22.4Q100.59-22.4 98.46-17.55 96.34-12.7 96.34-8.35L96.34-8.35Q96.34-6 96.86-5.15 97.39-4.3 98.89-4.3L98.89-4.3Q100.74-4.3 102.41-7.3 104.09-10.3 104.69-14.7L104.69-14.7Q103.99-14.85 103.66-15.38 103.34-15.9 103.34-16.8L103.34-16.8Q103.34-17.75 103.74-18.45 104.14-19.15 104.89-19.5L104.89-19.5Q104.79-21.1 104.36-21.75 103.94-22.4 102.99-22.4ZM123.94-5.35L123.94-5.35Q123.94-6.25 124.16-7.6 124.39-8.95 125.09-11.9L125.09-11.9Q125.79-14.75 125.99-16 126.19-17.25 126.19-18.1L126.19-18.1Q126.19-19.35 125.74-20 125.29-20.65 124.39-20.65L124.39-20.65Q123.19-20.65 122.16-19.43 121.14-18.2 120.49-16.05L120.49-16.05 117.09 0 109.89 0 115.19-25 122.39-25 121.84-22.4Q123.09-23.8 124.54-24.5 125.99-25.2 127.69-25.2L127.69-25.2Q130.34-25.2 131.79-23.75 133.24-22.3 133.24-19.55L133.24-19.55Q133.24-18.4 132.96-16.82 132.69-15.25 131.89-12L131.89-12Q131.24-9.45 131.04-8.4 130.84-7.35 130.84-6.65L130.84-6.65Q130.84-5.6 131.34-5.08 131.84-4.55 132.84-4.55L132.84-4.55Q134.09-4.55 134.99-5.4 135.89-6.25 137.04-8.95L137.04-8.95 139.14-8.95Q137.54-4.3 135.26-2 132.99 0.3 129.84 0.3L129.84 0.3Q127.04 0.3 125.49-1.23 123.94-2.75 123.94-5.35ZM142.38-34L149.78-35 146.03-17.4 155.69-25 160.63-25 150.63-18.05Q151.34-18.15 151.66-18.2 151.98-18.25 152.28-18.25L152.28-18.25Q154.84-18.25 156.31-16.65 157.78-15.05 157.78-12.4L157.78-12.4Q157.78-11.9 157.74-11.43 157.69-10.95 157.59-10.5L157.59-10.5 157.03-8Q156.94-7.4 156.86-7 156.78-6.6 156.78-6.4L156.78-6.4Q156.78-5.45 157.26-5 157.74-4.55 158.74-4.55L158.74-4.55Q159.99-4.55 160.88-5.4 161.78-6.25 162.94-8.95L162.94-8.95 165.03-8.95Q163.49-4.35 161.19-2.02 158.88 0.3 155.84 0.3L155.84 0.3Q152.78 0.3 151.16-1.18 149.53-2.65 149.53-5.4L149.53-5.4Q149.53-6 149.61-6.65 149.69-7.3 149.84-8L149.84-8 150.23-9.95Q150.34-10.4 150.38-10.85 150.44-11.3 150.44-11.8L150.44-11.8Q150.44-13 149.98-13.6 149.53-14.2 148.63-14.2L148.63-14.2Q147.88-14.2 147.01-13.78 146.13-13.35 144.94-12.35L144.94-12.35 142.34 0 135.13 0 142.38-34ZM178.43-20.75L178.43-20.75Q177.63-20.75 177.13-21.53 176.63-22.3 176.63-23.3L176.63-23.3Q176.63-24.55 177.46-25.28 178.28-26 179.73-26L179.73-26Q181.28-26 182.08-24.85 182.88-23.7 182.88-21.65L182.88-21.65Q182.88-18.25 182.01-14.53 181.13-10.8 179.63-7.75L179.63-7.75Q177.63-3.8 174.83-1.75 172.03 0.3 168.63 0.3L168.63 0.3Q165.68 0.3 164.08-1.23 162.48-2.75 162.48-5.6L162.48-5.6Q162.48-6.15 162.56-6.78 162.63-7.4 162.73-8L162.73-8 166.33-25 173.53-25 169.93-8Q169.83-7.45 169.76-6.98 169.68-6.5 169.68-6.2L169.68-6.2Q169.68-5.4 170.11-4.98 170.53-4.55 171.38-4.55L171.38-4.55Q173.13-4.55 174.81-6.38 176.48-8.2 177.83-11.55L177.83-11.55Q178.83-13.95 179.43-16.6 180.03-19.25 180.03-21.25L180.03-21.25Q179.93-21.05 179.41-20.9 178.88-20.75 178.43-20.75Z" opacity="1" transform="matrix(1,0,0,1,0,0)" fill="#ee3e38" class="wordmark-text-0" data-fill-palette-color="primary" id="text-0"></path></svg></g></svg></g></svg></g></svg></g><g></g></svg></g></svg></g></svg></g></svg></g><defs></defs></svg><rect width="395.52" height="247.2" fill="none" stroke="none" visibility="hidden"></rect></g></svg></g></svg>